<mxfile host="Electron" modified="2023-06-27T09:52:45.131Z" agent="Mozilla/5.0 (Windows NT 10.0; Win64; x64) AppleWebKit/537.36 (KHTML, like Gecko) draw.io/21.2.8 Chrome/112.0.5615.165 Electron/24.2.0 Safari/537.36" etag="EUtnOMUIXWhBLPpqDCvK" version="21.2.8" type="device" pages="4">
  <diagram name="Page-1" id="mM8-SEhMmEOHW7ZlgohF">
    <mxGraphModel dx="2229" dy="1440" grid="1" gridSize="10" guides="1" tooltips="1" connect="1" arrows="1" fold="1" page="1" pageScale="1" pageWidth="850" pageHeight="1100" math="0" shadow="0">
      <root>
        <mxCell id="0" />
        <mxCell id="1" parent="0" />
        <mxCell id="IyfIk_YPCn4Y9Wi4Vp1T-1" value="" style="html=1;verticalLabelPosition=bottom;labelBackgroundColor=#ffffff;verticalAlign=top;shadow=0;dashed=0;strokeWidth=1;shape=mxgraph.ios7.misc.iphone;strokeColor=#c0c0c0;" parent="1" vertex="1">
          <mxGeometry x="200" y="40" width="290" height="550" as="geometry" />
        </mxCell>
        <mxCell id="IyfIk_YPCn4Y9Wi4Vp1T-14" value="&lt;font color=&quot;#ff0000&quot; style=&quot;font-size: 24px;&quot;&gt;Kairos&lt;/font&gt;" style="text;html=1;strokeColor=none;fillColor=none;align=center;verticalAlign=middle;whiteSpace=wrap;rounded=0;fontSize=24;" parent="1" vertex="1">
          <mxGeometry x="270" y="230" width="140" height="40" as="geometry" />
        </mxCell>
        <mxCell id="IyfIk_YPCn4Y9Wi4Vp1T-15" value="" style="shadow=0;dashed=0;html=1;strokeColor=none;fillColor=#4495D1;labelPosition=center;verticalLabelPosition=bottom;verticalAlign=top;align=center;outlineConnect=0;shape=mxgraph.veeam.portal_admin;" parent="1" vertex="1">
          <mxGeometry x="260" y="300" width="44.4" height="48.8" as="geometry" />
        </mxCell>
        <mxCell id="IyfIk_YPCn4Y9Wi4Vp1T-16" value="" style="sketch=0;outlineConnect=0;fontColor=#232F3E;gradientColor=none;fillColor=#232F3D;strokeColor=none;dashed=0;verticalLabelPosition=bottom;verticalAlign=top;align=center;html=1;fontSize=12;fontStyle=0;aspect=fixed;pointerEvents=1;shape=mxgraph.aws4.user;" parent="1" vertex="1">
          <mxGeometry x="370" y="298.2" width="50.6" height="50.6" as="geometry" />
        </mxCell>
        <mxCell id="IyfIk_YPCn4Y9Wi4Vp1T-17" value="Admin" style="text;html=1;strokeColor=none;fillColor=none;align=center;verticalAlign=middle;whiteSpace=wrap;rounded=0;" parent="1" vertex="1">
          <mxGeometry x="252.20000000000002" y="348.8" width="60" height="30" as="geometry" />
        </mxCell>
        <mxCell id="IyfIk_YPCn4Y9Wi4Vp1T-19" value="User" style="text;html=1;strokeColor=none;fillColor=none;align=center;verticalAlign=middle;whiteSpace=wrap;rounded=0;" parent="1" vertex="1">
          <mxGeometry x="370" y="348.8" width="60" height="30" as="geometry" />
        </mxCell>
        <mxCell id="IyfIk_YPCn4Y9Wi4Vp1T-20" value="" style="html=1;verticalLabelPosition=bottom;labelBackgroundColor=#ffffff;verticalAlign=top;shadow=0;dashed=0;strokeWidth=1;shape=mxgraph.ios7.misc.iphone;strokeColor=#c0c0c0;" parent="1" vertex="1">
          <mxGeometry x="200" y="680" width="290" height="550" as="geometry" />
        </mxCell>
        <mxCell id="IyfIk_YPCn4Y9Wi4Vp1T-26" value="" style="strokeWidth=1;shadow=0;dashed=0;align=center;html=1;shape=mxgraph.mockup.forms.rrect;rSize=0;strokeColor=#999999;fillColor=#ffffff;" parent="1" vertex="1">
          <mxGeometry x="240" y="800" width="200" height="300" as="geometry" />
        </mxCell>
        <mxCell id="IyfIk_YPCn4Y9Wi4Vp1T-27" value="Sign In" style="strokeWidth=1;shadow=0;dashed=0;align=center;html=1;shape=mxgraph.mockup.forms.anchor;fontSize=12;fontColor=#666666;align=left;resizeWidth=1;spacingLeft=0;" parent="IyfIk_YPCn4Y9Wi4Vp1T-26" vertex="1">
          <mxGeometry width="100" height="20" relative="1" as="geometry">
            <mxPoint x="10" y="10" as="offset" />
          </mxGeometry>
        </mxCell>
        <mxCell id="IyfIk_YPCn4Y9Wi4Vp1T-28" value="" style="shape=line;strokeColor=#ddeeff;strokeWidth=2;html=1;resizeWidth=1;" parent="IyfIk_YPCn4Y9Wi4Vp1T-26" vertex="1">
          <mxGeometry width="180" height="10" relative="1" as="geometry">
            <mxPoint x="10" y="30" as="offset" />
          </mxGeometry>
        </mxCell>
        <mxCell id="IyfIk_YPCn4Y9Wi4Vp1T-29" value="Admin:" style="strokeWidth=1;shadow=0;dashed=0;align=center;html=1;shape=mxgraph.mockup.forms.anchor;fontSize=12;fontColor=#666666;align=left;resizeWidth=1;spacingLeft=0;" parent="IyfIk_YPCn4Y9Wi4Vp1T-26" vertex="1">
          <mxGeometry width="100" height="20" relative="1" as="geometry">
            <mxPoint x="10" y="40" as="offset" />
          </mxGeometry>
        </mxCell>
        <mxCell id="IyfIk_YPCn4Y9Wi4Vp1T-30" value="johndoe" style="strokeWidth=1;shadow=0;dashed=0;align=center;html=1;shape=mxgraph.mockup.forms.rrect;rSize=0;strokeColor=#999999;fontColor=#666666;align=left;spacingLeft=5;resizeWidth=1;" parent="IyfIk_YPCn4Y9Wi4Vp1T-26" vertex="1">
          <mxGeometry width="150" height="25" relative="1" as="geometry">
            <mxPoint x="10" y="60" as="offset" />
          </mxGeometry>
        </mxCell>
        <mxCell id="IyfIk_YPCn4Y9Wi4Vp1T-31" value="Password:" style="strokeWidth=1;shadow=0;dashed=0;align=center;html=1;shape=mxgraph.mockup.forms.anchor;fontSize=12;fontColor=#666666;align=left;resizeWidth=1;spacingLeft=0;" parent="IyfIk_YPCn4Y9Wi4Vp1T-26" vertex="1">
          <mxGeometry width="100" height="20" relative="1" as="geometry">
            <mxPoint x="10" y="95" as="offset" />
          </mxGeometry>
        </mxCell>
        <mxCell id="IyfIk_YPCn4Y9Wi4Vp1T-32" value="********" style="strokeWidth=1;shadow=0;dashed=0;align=center;html=1;shape=mxgraph.mockup.forms.rrect;rSize=0;strokeColor=#999999;fontColor=#666666;align=left;spacingLeft=5;resizeWidth=1;" parent="IyfIk_YPCn4Y9Wi4Vp1T-26" vertex="1">
          <mxGeometry width="150" height="25" relative="1" as="geometry">
            <mxPoint x="10" y="115" as="offset" />
          </mxGeometry>
        </mxCell>
        <mxCell id="IyfIk_YPCn4Y9Wi4Vp1T-33" value="SIGN IN" style="strokeWidth=1;shadow=0;dashed=0;align=center;html=1;shape=mxgraph.mockup.forms.rrect;rSize=5;strokeColor=none;fontColor=#ffffff;fillColor=#66bbff;fontSize=16;fontStyle=1;" parent="IyfIk_YPCn4Y9Wi4Vp1T-26" vertex="1">
          <mxGeometry y="1" width="80" height="30" relative="1" as="geometry">
            <mxPoint x="20" y="-150" as="offset" />
          </mxGeometry>
        </mxCell>
      </root>
    </mxGraphModel>
  </diagram>
  <diagram id="VKcnt3_Nm7Vq97YajYWe" name="Page-2">
    <mxGraphModel dx="1733" dy="1120" grid="1" gridSize="10" guides="1" tooltips="1" connect="1" arrows="1" fold="1" page="1" pageScale="1" pageWidth="850" pageHeight="1100" math="0" shadow="0">
      <root>
        <mxCell id="0" />
        <mxCell id="1" parent="0" />
        <mxCell id="mO99TZKvvpBWiYosc4h4-1" value="" style="html=1;verticalLabelPosition=bottom;labelBackgroundColor=#ffffff;verticalAlign=top;shadow=0;dashed=0;strokeWidth=1;shape=mxgraph.ios7.misc.iphone;strokeColor=#c0c0c0;" parent="1" vertex="1">
          <mxGeometry x="240" y="40" width="290" height="550" as="geometry" />
        </mxCell>
        <mxCell id="7S-bLb0qXu0x7HTxkB7T-2" value="" style="strokeWidth=1;shadow=0;dashed=0;align=center;html=1;shape=mxgraph.mockup.forms.rrect;rSize=0;strokeColor=#999999;fillColor=#ffffff;" parent="1" vertex="1">
          <mxGeometry x="280" y="160" width="200" height="300" as="geometry" />
        </mxCell>
        <mxCell id="7S-bLb0qXu0x7HTxkB7T-3" value="Sign In" style="strokeWidth=1;shadow=0;dashed=0;align=center;html=1;shape=mxgraph.mockup.forms.anchor;fontSize=12;fontColor=#666666;align=left;resizeWidth=1;spacingLeft=0;" parent="7S-bLb0qXu0x7HTxkB7T-2" vertex="1">
          <mxGeometry width="100" height="20" relative="1" as="geometry">
            <mxPoint x="10" y="10" as="offset" />
          </mxGeometry>
        </mxCell>
        <mxCell id="7S-bLb0qXu0x7HTxkB7T-4" value="" style="shape=line;strokeColor=#ddeeff;strokeWidth=2;html=1;resizeWidth=1;" parent="7S-bLb0qXu0x7HTxkB7T-2" vertex="1">
          <mxGeometry width="180" height="10" relative="1" as="geometry">
            <mxPoint x="10" y="30" as="offset" />
          </mxGeometry>
        </mxCell>
        <mxCell id="7S-bLb0qXu0x7HTxkB7T-5" value="User Name:" style="strokeWidth=1;shadow=0;dashed=0;align=center;html=1;shape=mxgraph.mockup.forms.anchor;fontSize=12;fontColor=#666666;align=left;resizeWidth=1;spacingLeft=0;" parent="7S-bLb0qXu0x7HTxkB7T-2" vertex="1">
          <mxGeometry width="100" height="20" relative="1" as="geometry">
            <mxPoint x="10" y="40" as="offset" />
          </mxGeometry>
        </mxCell>
        <mxCell id="7S-bLb0qXu0x7HTxkB7T-6" value="johndoe" style="strokeWidth=1;shadow=0;dashed=0;align=center;html=1;shape=mxgraph.mockup.forms.rrect;rSize=0;strokeColor=#999999;fontColor=#666666;align=left;spacingLeft=5;resizeWidth=1;" parent="7S-bLb0qXu0x7HTxkB7T-2" vertex="1">
          <mxGeometry width="150" height="25" relative="1" as="geometry">
            <mxPoint x="10" y="60" as="offset" />
          </mxGeometry>
        </mxCell>
        <mxCell id="7S-bLb0qXu0x7HTxkB7T-7" value="Password:" style="strokeWidth=1;shadow=0;dashed=0;align=center;html=1;shape=mxgraph.mockup.forms.anchor;fontSize=12;fontColor=#666666;align=left;resizeWidth=1;spacingLeft=0;" parent="7S-bLb0qXu0x7HTxkB7T-2" vertex="1">
          <mxGeometry width="100" height="20" relative="1" as="geometry">
            <mxPoint x="10" y="95" as="offset" />
          </mxGeometry>
        </mxCell>
        <mxCell id="7S-bLb0qXu0x7HTxkB7T-8" value="********" style="strokeWidth=1;shadow=0;dashed=0;align=center;html=1;shape=mxgraph.mockup.forms.rrect;rSize=0;strokeColor=#999999;fontColor=#666666;align=left;spacingLeft=5;resizeWidth=1;" parent="7S-bLb0qXu0x7HTxkB7T-2" vertex="1">
          <mxGeometry width="150" height="25" relative="1" as="geometry">
            <mxPoint x="10" y="115" as="offset" />
          </mxGeometry>
        </mxCell>
        <mxCell id="7S-bLb0qXu0x7HTxkB7T-9" value="SIGN IN" style="strokeWidth=1;shadow=0;dashed=0;align=center;html=1;shape=mxgraph.mockup.forms.rrect;rSize=5;strokeColor=none;fontColor=#ffffff;fillColor=#66bbff;fontSize=16;fontStyle=1;" parent="7S-bLb0qXu0x7HTxkB7T-2" vertex="1">
          <mxGeometry y="1" width="80" height="30" relative="1" as="geometry">
            <mxPoint x="20" y="-150" as="offset" />
          </mxGeometry>
        </mxCell>
        <mxCell id="7S-bLb0qXu0x7HTxkB7T-10" value="Forgot Password?" style="strokeWidth=1;shadow=0;dashed=0;align=center;html=1;shape=mxgraph.mockup.forms.anchor;fontSize=12;fontColor=#9999ff;align=left;spacingLeft=0;fontStyle=4;resizeWidth=1;" parent="7S-bLb0qXu0x7HTxkB7T-2" vertex="1">
          <mxGeometry y="1" width="150" height="20" relative="1" as="geometry">
            <mxPoint x="10" y="-110" as="offset" />
          </mxGeometry>
        </mxCell>
        <mxCell id="7S-bLb0qXu0x7HTxkB7T-11" value="" style="shape=line;strokeColor=#ddeeff;strokeWidth=2;html=1;resizeWidth=1;" parent="7S-bLb0qXu0x7HTxkB7T-2" vertex="1">
          <mxGeometry y="1" width="180" height="10" relative="1" as="geometry">
            <mxPoint x="10" y="-90" as="offset" />
          </mxGeometry>
        </mxCell>
        <mxCell id="7S-bLb0qXu0x7HTxkB7T-12" value="New User" style="strokeWidth=1;shadow=0;dashed=0;align=center;html=1;shape=mxgraph.mockup.forms.anchor;fontSize=12;fontColor=#666666;align=left;spacingLeft=0;resizeWidth=1;" parent="7S-bLb0qXu0x7HTxkB7T-2" vertex="1">
          <mxGeometry y="1" width="150" height="20" relative="1" as="geometry">
            <mxPoint x="10" y="-70" as="offset" />
          </mxGeometry>
        </mxCell>
        <mxCell id="7S-bLb0qXu0x7HTxkB7T-13" value="SIGN UP" style="strokeWidth=1;shadow=0;dashed=0;align=center;html=1;shape=mxgraph.mockup.forms.rrect;rSize=5;strokeColor=none;fontColor=#ffffff;fillColor=#66bbff;fontSize=16;fontStyle=1;" parent="7S-bLb0qXu0x7HTxkB7T-2" vertex="1">
          <mxGeometry y="1" width="80" height="30" relative="1" as="geometry">
            <mxPoint x="20" y="-50" as="offset" />
          </mxGeometry>
        </mxCell>
        <mxCell id="9mQHGixlr9h5g29slZOQ-1" value="" style="html=1;verticalLabelPosition=bottom;labelBackgroundColor=#ffffff;verticalAlign=top;shadow=0;dashed=0;strokeWidth=1;shape=mxgraph.ios7.misc.iphone;strokeColor=#c0c0c0;whiteSpace=wrap;" parent="1" vertex="1">
          <mxGeometry x="240" y="1230" width="310" height="550" as="geometry" />
        </mxCell>
        <mxCell id="EGOdMz6rkbY6DVDxFLOh-16" value="" style="html=1;shadow=0;dashed=0;shape=mxgraph.bootstrap.rrect;rSize=5;strokeColor=none;html=1;whiteSpace=wrap;fillColor=#6C767D;fontColor=#ffffff;sketch=0;labelBackgroundColor=#FF99CC;" parent="1" vertex="1">
          <mxGeometry x="260" y="1650" width="270" height="50" as="geometry" />
        </mxCell>
        <mxCell id="EGOdMz6rkbY6DVDxFLOh-17" value="Events" style="strokeColor=inherit;fillColor=inherit;gradientColor=inherit;fontColor=inherit;html=1;shadow=0;dashed=0;shape=mxgraph.bootstrap.leftButton;rSize=5;perimeter=none;whiteSpace=wrap;resizeHeight=1;sketch=0;" parent="EGOdMz6rkbY6DVDxFLOh-16" vertex="1">
          <mxGeometry width="60" height="50" relative="1" as="geometry" />
        </mxCell>
        <mxCell id="EGOdMz6rkbY6DVDxFLOh-18" value="Reminder" style="strokeColor=inherit;fillColor=inherit;gradientColor=inherit;fontColor=inherit;html=1;shadow=0;dashed=0;perimeter=none;whiteSpace=wrap;resizeHeight=1;sketch=0;" parent="EGOdMz6rkbY6DVDxFLOh-16" vertex="1">
          <mxGeometry width="60" height="50" relative="1" as="geometry">
            <mxPoint x="95" as="offset" />
          </mxGeometry>
        </mxCell>
        <mxCell id="EGOdMz6rkbY6DVDxFLOh-19" value="Settings" style="strokeColor=inherit;fillColor=inherit;gradientColor=inherit;fontColor=inherit;html=1;shadow=0;dashed=0;shape=mxgraph.bootstrap.rightButton;rSize=5;perimeter=none;whiteSpace=wrap;resizeHeight=1;sketch=0;" parent="EGOdMz6rkbY6DVDxFLOh-16" vertex="1">
          <mxGeometry x="1" width="60" height="50" relative="1" as="geometry">
            <mxPoint x="-80" as="offset" />
          </mxGeometry>
        </mxCell>
        <mxCell id="yYPwEGeT3esE6Qe1NJIc-1" value="All Events" style="html=1;shadow=0;dashed=0;shape=mxgraph.bootstrap.rrect;rSize=5;strokeColor=none;strokeWidth=1;fillColor=#1CA5B8;fontColor=#FFFFFF;whiteSpace=wrap;align=center;verticalAlign=middle;spacingLeft=0;fontStyle=0;fontSize=16;spacing=5;" parent="1" vertex="1">
          <mxGeometry x="335" y="1370" width="120" height="70" as="geometry" />
        </mxCell>
        <mxCell id="yYPwEGeT3esE6Qe1NJIc-2" value="Pending Events" style="html=1;shadow=0;dashed=0;shape=mxgraph.bootstrap.rrect;rSize=5;strokeColor=none;strokeWidth=1;fillColor=#1CA5B8;fontColor=#FFFFFF;whiteSpace=wrap;align=center;verticalAlign=middle;spacingLeft=0;fontStyle=0;fontSize=16;spacing=5;" parent="1" vertex="1">
          <mxGeometry x="335" y="1460" width="120" height="70" as="geometry" />
        </mxCell>
        <mxCell id="yYPwEGeT3esE6Qe1NJIc-3" value="Completed Events" style="html=1;shadow=0;dashed=0;shape=mxgraph.bootstrap.rrect;rSize=5;strokeColor=none;strokeWidth=1;fillColor=#1CA5B8;fontColor=#FFFFFF;whiteSpace=wrap;align=center;verticalAlign=middle;spacingLeft=0;fontStyle=0;fontSize=16;spacing=5;" parent="1" vertex="1">
          <mxGeometry x="335" y="1550" width="120" height="70" as="geometry" />
        </mxCell>
        <mxCell id="yYPwEGeT3esE6Qe1NJIc-4" value="" style="sketch=0;outlineConnect=0;fontColor=#232F3E;gradientColor=none;fillColor=#232F3D;strokeColor=none;dashed=0;verticalLabelPosition=bottom;verticalAlign=top;align=center;html=1;fontSize=12;fontStyle=0;aspect=fixed;pointerEvents=1;shape=mxgraph.aws4.user;" parent="1" vertex="1">
          <mxGeometry x="490" y="1320" width="30" height="30" as="geometry" />
        </mxCell>
        <mxCell id="WmxiO5Bx3s8dZuf0k-S6-1" value="" style="html=1;verticalLabelPosition=bottom;labelBackgroundColor=#ffffff;verticalAlign=top;shadow=0;dashed=0;strokeWidth=1;shape=mxgraph.ios7.misc.iphone;strokeColor=#c0c0c0;whiteSpace=wrap;" parent="1" vertex="1">
          <mxGeometry x="240" y="1840" width="310" height="550" as="geometry" />
        </mxCell>
        <mxCell id="WmxiO5Bx3s8dZuf0k-S6-2" value="" style="html=1;shadow=0;dashed=0;shape=mxgraph.bootstrap.rrect;rSize=5;strokeColor=none;html=1;whiteSpace=wrap;fillColor=#6C767D;fontColor=#ffffff;sketch=0;labelBackgroundColor=#FF99CC;" parent="1" vertex="1">
          <mxGeometry x="260" y="2260" width="270" height="50" as="geometry" />
        </mxCell>
        <mxCell id="WmxiO5Bx3s8dZuf0k-S6-3" value="Events" style="strokeColor=inherit;fillColor=inherit;gradientColor=inherit;fontColor=inherit;html=1;shadow=0;dashed=0;shape=mxgraph.bootstrap.leftButton;rSize=5;perimeter=none;whiteSpace=wrap;resizeHeight=1;sketch=0;" parent="WmxiO5Bx3s8dZuf0k-S6-2" vertex="1">
          <mxGeometry width="60" height="50" relative="1" as="geometry" />
        </mxCell>
        <mxCell id="WmxiO5Bx3s8dZuf0k-S6-4" value="Reminder" style="strokeColor=inherit;fillColor=inherit;gradientColor=inherit;fontColor=inherit;html=1;shadow=0;dashed=0;perimeter=none;whiteSpace=wrap;resizeHeight=1;sketch=0;" parent="WmxiO5Bx3s8dZuf0k-S6-2" vertex="1">
          <mxGeometry width="60" height="50" relative="1" as="geometry">
            <mxPoint x="95" as="offset" />
          </mxGeometry>
        </mxCell>
        <mxCell id="WmxiO5Bx3s8dZuf0k-S6-5" value="Settings" style="strokeColor=inherit;fillColor=inherit;gradientColor=inherit;fontColor=inherit;html=1;shadow=0;dashed=0;shape=mxgraph.bootstrap.rightButton;rSize=5;perimeter=none;whiteSpace=wrap;resizeHeight=1;sketch=0;" parent="WmxiO5Bx3s8dZuf0k-S6-2" vertex="1">
          <mxGeometry x="1" width="60" height="50" relative="1" as="geometry">
            <mxPoint x="-80" as="offset" />
          </mxGeometry>
        </mxCell>
        <mxCell id="WmxiO5Bx3s8dZuf0k-S6-6" value="EVENT 1" style="html=1;shadow=0;dashed=0;shape=mxgraph.bootstrap.rrect;rSize=5;strokeColor=none;strokeWidth=1;fillColor=#1CA5B8;fontColor=#FFFFFF;whiteSpace=wrap;align=center;verticalAlign=middle;spacingLeft=0;fontStyle=0;fontSize=16;spacing=5;" parent="1" vertex="1">
          <mxGeometry x="335" y="2000" width="105" height="50" as="geometry" />
        </mxCell>
        <mxCell id="WmxiO5Bx3s8dZuf0k-S6-7" value="" style="html=1;shadow=0;dashed=0;fillColor=#F8F9FA;strokeColor=none;fontSize=16;fontColor=#181819;align=left;spacing=15;" parent="1" vertex="1">
          <mxGeometry x="270" y="1930" width="210" height="40" as="geometry" />
        </mxCell>
        <mxCell id="WmxiO5Bx3s8dZuf0k-S6-8" value="All Events" style="html=1;shadow=0;dashed=0;shape=mxgraph.bootstrap.rrect;rSize=5;fontSize=14;fontColor=#6C767D;strokeColor=#CED4DA;fillColor=#ffffff;align=left;spacing=10;" parent="WmxiO5Bx3s8dZuf0k-S6-7" vertex="1">
          <mxGeometry width="160" height="30" relative="1" as="geometry">
            <mxPoint y="5" as="offset" />
          </mxGeometry>
        </mxCell>
        <mxCell id="WmxiO5Bx3s8dZuf0k-S6-9" value="" style="html=1;verticalLabelPosition=bottom;align=center;labelBackgroundColor=#ffffff;verticalAlign=top;strokeWidth=2;strokeColor=#0080F0;shadow=0;dashed=0;shape=mxgraph.ios7.icons.looking_glass;" parent="WmxiO5Bx3s8dZuf0k-S6-7" vertex="1">
          <mxGeometry x="170" y="10" width="20" height="20" as="geometry" />
        </mxCell>
        <mxCell id="WmxiO5Bx3s8dZuf0k-S6-10" value="EVENT 2" style="html=1;shadow=0;dashed=0;shape=mxgraph.bootstrap.rrect;rSize=5;strokeColor=none;strokeWidth=1;fillColor=#1CA5B8;fontColor=#FFFFFF;whiteSpace=wrap;align=center;verticalAlign=middle;spacingLeft=0;fontStyle=0;fontSize=16;spacing=5;" parent="1" vertex="1">
          <mxGeometry x="335" y="2060" width="105" height="50" as="geometry" />
        </mxCell>
        <mxCell id="WmxiO5Bx3s8dZuf0k-S6-11" value="EVENT 3" style="html=1;shadow=0;dashed=0;shape=mxgraph.bootstrap.rrect;rSize=5;strokeColor=none;strokeWidth=1;fillColor=#1CA5B8;fontColor=#FFFFFF;whiteSpace=wrap;align=center;verticalAlign=middle;spacingLeft=0;fontStyle=0;fontSize=16;spacing=5;" parent="1" vertex="1">
          <mxGeometry x="335" y="2120" width="105" height="50" as="geometry" />
        </mxCell>
        <mxCell id="WmxiO5Bx3s8dZuf0k-S6-12" value="EVENT 4" style="html=1;shadow=0;dashed=0;shape=mxgraph.bootstrap.rrect;rSize=5;strokeColor=none;strokeWidth=1;fillColor=#1CA5B8;fontColor=#FFFFFF;whiteSpace=wrap;align=center;verticalAlign=middle;spacingLeft=0;fontStyle=0;fontSize=16;spacing=5;" parent="1" vertex="1">
          <mxGeometry x="335" y="2180" width="105" height="50" as="geometry" />
        </mxCell>
        <mxCell id="WmxiO5Bx3s8dZuf0k-S6-13" value="" style="html=1;verticalLabelPosition=bottom;labelBackgroundColor=#ffffff;verticalAlign=top;shadow=0;dashed=0;strokeWidth=1;shape=mxgraph.ios7.misc.iphone;strokeColor=#c0c0c0;whiteSpace=wrap;" parent="1" vertex="1">
          <mxGeometry x="240" y="2480" width="310" height="550" as="geometry" />
        </mxCell>
        <mxCell id="WmxiO5Bx3s8dZuf0k-S6-14" value="" style="html=1;shadow=0;dashed=0;shape=mxgraph.bootstrap.rrect;rSize=5;strokeColor=none;html=1;whiteSpace=wrap;fillColor=#6C767D;fontColor=#ffffff;sketch=0;labelBackgroundColor=#FF99CC;" parent="1" vertex="1">
          <mxGeometry x="260" y="2900" width="270" height="50" as="geometry" />
        </mxCell>
        <mxCell id="WmxiO5Bx3s8dZuf0k-S6-15" value="Events" style="strokeColor=inherit;fillColor=inherit;gradientColor=inherit;fontColor=inherit;html=1;shadow=0;dashed=0;shape=mxgraph.bootstrap.leftButton;rSize=5;perimeter=none;whiteSpace=wrap;resizeHeight=1;sketch=0;" parent="WmxiO5Bx3s8dZuf0k-S6-14" vertex="1">
          <mxGeometry width="60" height="50" relative="1" as="geometry" />
        </mxCell>
        <mxCell id="WmxiO5Bx3s8dZuf0k-S6-16" value="Reminder" style="strokeColor=inherit;fillColor=inherit;gradientColor=inherit;fontColor=inherit;html=1;shadow=0;dashed=0;perimeter=none;whiteSpace=wrap;resizeHeight=1;sketch=0;" parent="WmxiO5Bx3s8dZuf0k-S6-14" vertex="1">
          <mxGeometry width="60" height="50" relative="1" as="geometry">
            <mxPoint x="95" as="offset" />
          </mxGeometry>
        </mxCell>
        <mxCell id="WmxiO5Bx3s8dZuf0k-S6-17" value="Settings" style="strokeColor=inherit;fillColor=inherit;gradientColor=inherit;fontColor=inherit;html=1;shadow=0;dashed=0;shape=mxgraph.bootstrap.rightButton;rSize=5;perimeter=none;whiteSpace=wrap;resizeHeight=1;sketch=0;" parent="WmxiO5Bx3s8dZuf0k-S6-14" vertex="1">
          <mxGeometry x="1" width="60" height="50" relative="1" as="geometry">
            <mxPoint x="-80" as="offset" />
          </mxGeometry>
        </mxCell>
        <mxCell id="WmxiO5Bx3s8dZuf0k-S6-18" value="" style="html=1;shadow=0;dashed=0;fillColor=#F8F9FA;strokeColor=none;fontSize=16;fontColor=#181819;align=left;spacing=15;" parent="1" vertex="1">
          <mxGeometry x="270" y="2570" width="210" height="40" as="geometry" />
        </mxCell>
        <mxCell id="WmxiO5Bx3s8dZuf0k-S6-19" value="EVENT 1" style="html=1;shadow=0;dashed=0;shape=mxgraph.bootstrap.rrect;rSize=5;fontSize=14;fontColor=#6C767D;strokeColor=#CED4DA;fillColor=#ffffff;align=left;spacing=10;" parent="WmxiO5Bx3s8dZuf0k-S6-18" vertex="1">
          <mxGeometry width="160" height="30" relative="1" as="geometry">
            <mxPoint y="5" as="offset" />
          </mxGeometry>
        </mxCell>
        <mxCell id="WmxiO5Bx3s8dZuf0k-S6-20" value="" style="html=1;verticalLabelPosition=bottom;align=center;labelBackgroundColor=#ffffff;verticalAlign=top;strokeWidth=2;strokeColor=#0080F0;shadow=0;dashed=0;shape=mxgraph.ios7.icons.looking_glass;" parent="WmxiO5Bx3s8dZuf0k-S6-18" vertex="1">
          <mxGeometry x="170" y="10" width="20" height="20" as="geometry" />
        </mxCell>
        <mxCell id="WmxiO5Bx3s8dZuf0k-S6-21" value="&lt;font color=&quot;#b3b3b3&quot; style=&quot;font-size: 14px;&quot;&gt;DESCRIPTION&lt;/font&gt;" style="html=1;shadow=0;dashed=0;shape=mxgraph.bootstrap.rrect;rSize=5;strokeColor=#000000;strokeWidth=1;fillColor=none;fontColor=#1CA5B8;whiteSpace=wrap;align=center;verticalAlign=middle;spacingLeft=0;fontStyle=0;fontSize=16;spacing=5;" parent="1" vertex="1">
          <mxGeometry x="270" y="2650" width="110" height="50" as="geometry" />
        </mxCell>
        <mxCell id="WmxiO5Bx3s8dZuf0k-S6-22" value="&lt;span style=&quot;font-size: 13px;&quot;&gt;&lt;font color=&quot;#b3b3b3&quot;&gt;DEADLINE&lt;/font&gt;&lt;/span&gt;" style="html=1;shadow=0;dashed=0;shape=mxgraph.bootstrap.rrect;rSize=5;strokeColor=#000000;strokeWidth=1;fillColor=none;fontColor=#1CA5B8;whiteSpace=wrap;align=center;verticalAlign=middle;spacingLeft=0;fontStyle=0;fontSize=16;spacing=5;" parent="1" vertex="1">
          <mxGeometry x="410" y="2650" width="110" height="50" as="geometry" />
        </mxCell>
        <mxCell id="WmxiO5Bx3s8dZuf0k-S6-23" value="&lt;font color=&quot;#b3b3b3&quot;&gt;ADD COMMENT&lt;/font&gt;" style="html=1;shadow=0;dashed=0;shape=mxgraph.bootstrap.rrect;rSize=5;strokeColor=#000000;strokeWidth=1;fillColor=none;fontColor=#1CA5B8;whiteSpace=wrap;align=center;verticalAlign=middle;spacingLeft=0;fontStyle=0;fontSize=16;spacing=5;" parent="1" vertex="1">
          <mxGeometry x="305" y="2730" width="170" height="90" as="geometry" />
        </mxCell>
        <mxCell id="WmxiO5Bx3s8dZuf0k-S6-24" value="&amp;nbsp; &amp;nbsp;SAVE" style="rounded=1;whiteSpace=wrap;html=1;arcSize=50;strokeColor=#006EAF;strokeWidth=1;fillColor=#1ba1e2;whiteSpace=wrap;align=left;verticalAlign=middle;spacingLeft=0;fontStyle=1;fontSize=14;spacing=10;fontColor=#ffffff;" parent="1" vertex="1">
          <mxGeometry x="290" y="2850" width="80" height="30" as="geometry" />
        </mxCell>
        <mxCell id="WmxiO5Bx3s8dZuf0k-S6-25" value="CANCEL" style="rounded=1;whiteSpace=wrap;html=1;arcSize=50;strokeColor=#006EAF;strokeWidth=1;fillColor=#1ba1e2;fontColor=#ffffff;whiteSpace=wrap;align=left;verticalAlign=middle;spacingLeft=0;fontStyle=1;fontSize=14;spacing=10;" parent="1" vertex="1">
          <mxGeometry x="410" y="2850" width="75" height="30" as="geometry" />
        </mxCell>
        <mxCell id="WmxiO5Bx3s8dZuf0k-S6-26" value="" style="html=1;verticalLabelPosition=bottom;labelBackgroundColor=#ffffff;verticalAlign=top;shadow=0;dashed=0;strokeWidth=1;shape=mxgraph.ios7.misc.iphone;strokeColor=#c0c0c0;" parent="1" vertex="1">
          <mxGeometry x="240" y="640" width="290" height="550" as="geometry" />
        </mxCell>
        <mxCell id="WmxiO5Bx3s8dZuf0k-S6-27" value="&lt;br&gt;&lt;br&gt;&lt;br&gt;" style="strokeWidth=1;shadow=0;dashed=0;align=center;html=1;shape=mxgraph.mockup.forms.rrect;rSize=0;strokeColor=#999999;fillColor=#ffffff;" parent="1" vertex="1">
          <mxGeometry x="280" y="765" width="200" height="300" as="geometry" />
        </mxCell>
        <mxCell id="WmxiO5Bx3s8dZuf0k-S6-28" value="Sign Up" style="strokeWidth=1;shadow=0;dashed=0;align=center;html=1;shape=mxgraph.mockup.forms.anchor;fontSize=12;fontColor=#666666;align=left;resizeWidth=1;spacingLeft=0;" parent="WmxiO5Bx3s8dZuf0k-S6-27" vertex="1">
          <mxGeometry width="100" height="20" relative="1" as="geometry">
            <mxPoint x="10" y="10" as="offset" />
          </mxGeometry>
        </mxCell>
        <mxCell id="WmxiO5Bx3s8dZuf0k-S6-29" value="" style="shape=line;strokeColor=#ddeeff;strokeWidth=2;html=1;resizeWidth=1;" parent="WmxiO5Bx3s8dZuf0k-S6-27" vertex="1">
          <mxGeometry width="180" height="10" relative="1" as="geometry">
            <mxPoint x="10" y="30" as="offset" />
          </mxGeometry>
        </mxCell>
        <mxCell id="WmxiO5Bx3s8dZuf0k-S6-30" value="User Name:" style="strokeWidth=1;shadow=0;dashed=0;align=center;html=1;shape=mxgraph.mockup.forms.anchor;fontSize=12;fontColor=#666666;align=left;resizeWidth=1;spacingLeft=0;" parent="WmxiO5Bx3s8dZuf0k-S6-27" vertex="1">
          <mxGeometry width="100" height="20" relative="1" as="geometry">
            <mxPoint x="10" y="40" as="offset" />
          </mxGeometry>
        </mxCell>
        <mxCell id="WmxiO5Bx3s8dZuf0k-S6-31" value="johndoe" style="strokeWidth=1;shadow=0;dashed=0;align=center;html=1;shape=mxgraph.mockup.forms.rrect;rSize=0;strokeColor=#999999;fontColor=#666666;align=left;spacingLeft=5;resizeWidth=1;" parent="WmxiO5Bx3s8dZuf0k-S6-27" vertex="1">
          <mxGeometry width="150" height="25" relative="1" as="geometry">
            <mxPoint x="10" y="60" as="offset" />
          </mxGeometry>
        </mxCell>
        <mxCell id="WmxiO5Bx3s8dZuf0k-S6-32" value="Password:" style="strokeWidth=1;shadow=0;dashed=0;align=center;html=1;shape=mxgraph.mockup.forms.anchor;fontSize=12;fontColor=#666666;align=left;resizeWidth=1;spacingLeft=0;" parent="WmxiO5Bx3s8dZuf0k-S6-27" vertex="1">
          <mxGeometry width="100" height="20" relative="1" as="geometry">
            <mxPoint x="10" y="95" as="offset" />
          </mxGeometry>
        </mxCell>
        <mxCell id="WmxiO5Bx3s8dZuf0k-S6-33" value="********" style="strokeWidth=1;shadow=0;dashed=0;align=center;html=1;shape=mxgraph.mockup.forms.rrect;rSize=0;strokeColor=#999999;fontColor=#666666;align=left;spacingLeft=5;resizeWidth=1;" parent="WmxiO5Bx3s8dZuf0k-S6-27" vertex="1">
          <mxGeometry width="150" height="25" relative="1" as="geometry">
            <mxPoint x="10" y="118" as="offset" />
          </mxGeometry>
        </mxCell>
        <mxCell id="WmxiO5Bx3s8dZuf0k-S6-34" value="" style="strokeWidth=1;shadow=0;dashed=0;align=center;html=1;shape=mxgraph.mockup.forms.anchor;fontSize=12;fontColor=#9999ff;align=left;spacingLeft=0;fontStyle=4;resizeWidth=1;" parent="WmxiO5Bx3s8dZuf0k-S6-27" vertex="1">
          <mxGeometry y="1" width="150" height="20" relative="1" as="geometry">
            <mxPoint x="10" y="-110" as="offset" />
          </mxGeometry>
        </mxCell>
        <mxCell id="WmxiO5Bx3s8dZuf0k-S6-35" value="SIGN UP" style="strokeWidth=1;shadow=0;dashed=0;align=center;html=1;shape=mxgraph.mockup.forms.rrect;rSize=5;strokeColor=none;fontColor=#ffffff;fillColor=#66bbff;fontSize=16;fontStyle=1;" parent="WmxiO5Bx3s8dZuf0k-S6-27" vertex="1">
          <mxGeometry y="1" width="80" height="30" relative="1" as="geometry">
            <mxPoint x="20" y="-60" as="offset" />
          </mxGeometry>
        </mxCell>
        <mxCell id="WmxiO5Bx3s8dZuf0k-S6-36" value="********" style="strokeWidth=1;shadow=0;dashed=0;align=center;html=1;shape=mxgraph.mockup.forms.rrect;rSize=0;strokeColor=#999999;fontColor=#666666;align=left;spacingLeft=5;resizeWidth=1;" parent="WmxiO5Bx3s8dZuf0k-S6-27" vertex="1">
          <mxGeometry x="10" y="190" width="150" height="25" as="geometry" />
        </mxCell>
        <mxCell id="WmxiO5Bx3s8dZuf0k-S6-37" value="&lt;span style=&quot;color: rgb(102, 102, 102); font-family: Helvetica; font-size: 12px; font-style: normal; font-variant-ligatures: normal; font-variant-caps: normal; font-weight: 400; letter-spacing: normal; orphans: 2; text-align: left; text-indent: 0px; text-transform: none; widows: 2; word-spacing: 0px; -webkit-text-stroke-width: 0px; background-color: rgb(251, 251, 251); text-decoration-thickness: initial; text-decoration-style: initial; text-decoration-color: initial; float: none; display: inline !important;&quot;&gt;Confirm Password:&lt;/span&gt;" style="text;whiteSpace=wrap;html=1;" parent="WmxiO5Bx3s8dZuf0k-S6-27" vertex="1">
          <mxGeometry x="10" y="160" width="120" height="20" as="geometry" />
        </mxCell>
      </root>
    </mxGraphModel>
  </diagram>
  <diagram id="FJlHc2rj4Wiz6AmBS0nD" name="Page-3">
    <mxGraphModel dx="1950" dy="160" grid="1" gridSize="10" guides="1" tooltips="1" connect="1" arrows="1" fold="1" page="1" pageScale="1" pageWidth="850" pageHeight="1100" math="0" shadow="0">
      <root>
        <mxCell id="0" />
        <mxCell id="1" parent="0" />
        <mxCell id="ymVtlakPvSu520oCSMB0-1" value="" style="html=1;verticalLabelPosition=bottom;labelBackgroundColor=#ffffff;verticalAlign=top;shadow=0;dashed=0;strokeWidth=1;shape=mxgraph.ios7.misc.iphone;strokeColor=#c0c0c0;whiteSpace=wrap;" parent="1" vertex="1">
          <mxGeometry x="238.13" y="2360" width="310" height="550" as="geometry" />
        </mxCell>
        <mxCell id="ymVtlakPvSu520oCSMB0-2" value="" style="html=1;shadow=0;dashed=0;shape=mxgraph.bootstrap.rrect;rSize=5;strokeColor=none;html=1;whiteSpace=wrap;fillColor=#6C767D;fontColor=#ffffff;sketch=0;labelBackgroundColor=#FF99CC;" parent="1" vertex="1">
          <mxGeometry x="258.13" y="2780" width="270" height="50" as="geometry" />
        </mxCell>
        <mxCell id="ymVtlakPvSu520oCSMB0-3" value="Add Event" style="strokeColor=inherit;fillColor=inherit;gradientColor=inherit;fontColor=inherit;html=1;shadow=0;dashed=0;shape=mxgraph.bootstrap.leftButton;rSize=5;perimeter=none;whiteSpace=wrap;resizeHeight=1;sketch=0;" parent="ymVtlakPvSu520oCSMB0-2" vertex="1">
          <mxGeometry width="70" height="50" relative="1" as="geometry">
            <mxPoint x="10" as="offset" />
          </mxGeometry>
        </mxCell>
        <mxCell id="ymVtlakPvSu520oCSMB0-4" value="View" style="strokeColor=inherit;fillColor=inherit;gradientColor=inherit;fontColor=inherit;html=1;shadow=0;dashed=0;perimeter=none;whiteSpace=wrap;resizeHeight=1;sketch=0;" parent="ymVtlakPvSu520oCSMB0-2" vertex="1">
          <mxGeometry width="60" height="50" relative="1" as="geometry">
            <mxPoint x="95" as="offset" />
          </mxGeometry>
        </mxCell>
        <mxCell id="ymVtlakPvSu520oCSMB0-5" value="Settings" style="strokeColor=inherit;fillColor=inherit;gradientColor=inherit;fontColor=inherit;html=1;shadow=0;dashed=0;shape=mxgraph.bootstrap.rightButton;rSize=5;perimeter=none;whiteSpace=wrap;resizeHeight=1;sketch=0;" parent="ymVtlakPvSu520oCSMB0-2" vertex="1">
          <mxGeometry x="1" width="60" height="50" relative="1" as="geometry">
            <mxPoint x="-80" as="offset" />
          </mxGeometry>
        </mxCell>
        <mxCell id="ymVtlakPvSu520oCSMB0-6" value="SET&lt;br&gt;DEADLINE" style="html=1;shadow=0;dashed=0;shape=mxgraph.bootstrap.rrect;rSize=5;strokeColor=none;strokeWidth=1;fillColor=#1CA5B8;fontColor=#FFFFFF;whiteSpace=wrap;align=center;verticalAlign=middle;spacingLeft=0;fontStyle=0;fontSize=16;spacing=5;" parent="1" vertex="1">
          <mxGeometry x="323.91" y="2570" width="146.09" height="50" as="geometry" />
        </mxCell>
        <mxCell id="ymVtlakPvSu520oCSMB0-7" value="REMARKS" style="html=1;shadow=0;dashed=0;shape=mxgraph.bootstrap.rrect;rSize=5;strokeColor=none;strokeWidth=1;fillColor=#1CA5B8;fontColor=#FFFFFF;whiteSpace=wrap;align=center;verticalAlign=middle;spacingLeft=0;fontStyle=0;fontSize=16;spacing=5;" parent="1" vertex="1">
          <mxGeometry x="321.42" y="2640" width="148.58" height="50" as="geometry" />
        </mxCell>
        <mxCell id="ymVtlakPvSu520oCSMB0-9" value="" style="html=1;shadow=0;dashed=0;fillColor=#F8F9FA;strokeColor=none;fontSize=16;fontColor=#181819;align=left;spacing=15;" parent="1" vertex="1">
          <mxGeometry x="268.13" y="2450" width="210" height="30" as="geometry" />
        </mxCell>
        <mxCell id="ymVtlakPvSu520oCSMB0-10" value="Add Event" style="html=1;shadow=0;dashed=0;shape=mxgraph.bootstrap.rrect;rSize=5;fontSize=14;fontColor=#6C767D;strokeColor=#CED4DA;fillColor=#ffffff;align=left;spacing=10;" parent="ymVtlakPvSu520oCSMB0-9" vertex="1">
          <mxGeometry width="160" height="30" relative="1" as="geometry">
            <mxPoint as="offset" />
          </mxGeometry>
        </mxCell>
        <mxCell id="ymVtlakPvSu520oCSMB0-17" value="" style="html=1;verticalLabelPosition=bottom;align=center;labelBackgroundColor=#ffffff;verticalAlign=top;strokeWidth=2;strokeColor=#0080F0;shadow=0;dashed=0;shape=mxgraph.ios7.icons.looking_glass;" parent="ymVtlakPvSu520oCSMB0-9" vertex="1">
          <mxGeometry x="170" y="5" width="20" height="20" as="geometry" />
        </mxCell>
        <mxCell id="ymVtlakPvSu520oCSMB0-18" value="DESCRIPTION" style="html=1;shadow=0;dashed=0;shape=mxgraph.bootstrap.rrect;rSize=5;strokeColor=none;strokeWidth=1;fillColor=#1CA5B8;fontColor=#FFFFFF;whiteSpace=wrap;align=center;verticalAlign=middle;spacingLeft=0;fontStyle=0;fontSize=16;spacing=5;" parent="1" vertex="1">
          <mxGeometry x="324.69" y="2500" width="145.31" height="50" as="geometry" />
        </mxCell>
        <mxCell id="p7KFQen1C-8qoPf41pVK-1" value="" style="html=1;verticalLabelPosition=bottom;labelBackgroundColor=#ffffff;verticalAlign=top;shadow=0;dashed=0;strokeWidth=1;shape=mxgraph.ios7.misc.iphone;strokeColor=#c0c0c0;whiteSpace=wrap;" parent="1" vertex="1">
          <mxGeometry x="240" y="1760" width="310" height="550" as="geometry" />
        </mxCell>
        <mxCell id="p7KFQen1C-8qoPf41pVK-2" value="" style="html=1;shadow=0;dashed=0;shape=mxgraph.bootstrap.rrect;rSize=5;strokeColor=none;html=1;whiteSpace=wrap;fillColor=#6C767D;fontColor=#ffffff;sketch=0;labelBackgroundColor=#FF99CC;" parent="1" vertex="1">
          <mxGeometry x="260" y="2180" width="270" height="50" as="geometry" />
        </mxCell>
        <mxCell id="p7KFQen1C-8qoPf41pVK-3" value="Events" style="strokeColor=inherit;fillColor=inherit;gradientColor=inherit;fontColor=inherit;html=1;shadow=0;dashed=0;shape=mxgraph.bootstrap.leftButton;rSize=5;perimeter=none;whiteSpace=wrap;resizeHeight=1;sketch=0;" parent="p7KFQen1C-8qoPf41pVK-2" vertex="1">
          <mxGeometry width="60" height="50" relative="1" as="geometry" />
        </mxCell>
        <mxCell id="p7KFQen1C-8qoPf41pVK-4" value="Reminder" style="strokeColor=inherit;fillColor=inherit;gradientColor=inherit;fontColor=inherit;html=1;shadow=0;dashed=0;perimeter=none;whiteSpace=wrap;resizeHeight=1;sketch=0;" parent="p7KFQen1C-8qoPf41pVK-2" vertex="1">
          <mxGeometry width="60" height="50" relative="1" as="geometry">
            <mxPoint x="95" as="offset" />
          </mxGeometry>
        </mxCell>
        <mxCell id="p7KFQen1C-8qoPf41pVK-5" value="Settings" style="strokeColor=inherit;fillColor=inherit;gradientColor=inherit;fontColor=inherit;html=1;shadow=0;dashed=0;shape=mxgraph.bootstrap.rightButton;rSize=5;perimeter=none;whiteSpace=wrap;resizeHeight=1;sketch=0;" parent="p7KFQen1C-8qoPf41pVK-2" vertex="1">
          <mxGeometry x="1" width="60" height="50" relative="1" as="geometry">
            <mxPoint x="-80" as="offset" />
          </mxGeometry>
        </mxCell>
        <mxCell id="p7KFQen1C-8qoPf41pVK-10" value="" style="rounded=1;whiteSpace=wrap;html=1;" parent="1" vertex="1">
          <mxGeometry x="271.87" y="1900" width="250" height="50" as="geometry" />
        </mxCell>
        <mxCell id="p7KFQen1C-8qoPf41pVK-11" value="Event 1" style="text;html=1;strokeColor=none;fillColor=none;align=center;verticalAlign=middle;whiteSpace=wrap;rounded=0;" parent="1" vertex="1">
          <mxGeometry x="276.87" y="1910" width="60" height="30" as="geometry" />
        </mxCell>
        <mxCell id="p7KFQen1C-8qoPf41pVK-12" value="" style="rounded=1;arcSize=9;fillColor=#F7F8F9;align=left;spacingLeft=5;strokeColor=#DEE1E6;html=1;strokeWidth=2;fontColor=#596780;fontSize=12;sketch=1;hachureGap=4;pointerEvents=0;fontFamily=Architects Daughter;fontSource=https%3A%2F%2Ffonts.googleapis.com%2Fcss%3Ffamily%3DArchitects%2BDaughter;" parent="1" vertex="1">
          <mxGeometry x="443.12" y="1915.5" width="38.75" height="19" as="geometry" />
        </mxCell>
        <mxCell id="p7KFQen1C-8qoPf41pVK-13" value="" style="shape=mxgraph.gmdl.calendar;fillColor=#5A6881;strokeColor=none;sketch=0;hachureGap=4;pointerEvents=0;fontFamily=Architects Daughter;fontSource=https%3A%2F%2Ffonts.googleapis.com%2Fcss%3Ffamily%3DArchitects%2BDaughter;fontSize=20;" parent="p7KFQen1C-8qoPf41pVK-12" vertex="1">
          <mxGeometry x="1" y="0.5" width="18" height="18" relative="1" as="geometry">
            <mxPoint x="-29" y="-9" as="offset" />
          </mxGeometry>
        </mxCell>
        <mxCell id="p7KFQen1C-8qoPf41pVK-14" value="" style="html=1;verticalLabelPosition=bottom;align=center;labelBackgroundColor=#ffffff;verticalAlign=top;strokeWidth=2;strokeColor=#0080F0;shadow=0;dashed=0;shape=mxgraph.ios7.icons.bell;" parent="1" vertex="1">
          <mxGeometry x="491.87" y="1914.5" width="20" height="20" as="geometry" />
        </mxCell>
        <mxCell id="p7KFQen1C-8qoPf41pVK-15" value="" style="rounded=1;whiteSpace=wrap;html=1;" parent="1" vertex="1">
          <mxGeometry x="271.87" y="2040" width="250" height="50" as="geometry" />
        </mxCell>
        <mxCell id="p7KFQen1C-8qoPf41pVK-16" value="" style="rounded=1;whiteSpace=wrap;html=1;" parent="1" vertex="1">
          <mxGeometry x="271.87" y="2110" width="250" height="50" as="geometry" />
        </mxCell>
        <mxCell id="p7KFQen1C-8qoPf41pVK-17" value="" style="rounded=1;whiteSpace=wrap;html=1;" parent="1" vertex="1">
          <mxGeometry x="271.87" y="1970" width="250" height="50" as="geometry" />
        </mxCell>
        <mxCell id="p7KFQen1C-8qoPf41pVK-18" value="Event 2" style="text;html=1;strokeColor=none;fillColor=none;align=center;verticalAlign=middle;whiteSpace=wrap;rounded=0;" parent="1" vertex="1">
          <mxGeometry x="276.87" y="1980" width="60" height="30" as="geometry" />
        </mxCell>
        <mxCell id="p7KFQen1C-8qoPf41pVK-19" value="Event 3" style="text;html=1;strokeColor=none;fillColor=none;align=center;verticalAlign=middle;whiteSpace=wrap;rounded=0;" parent="1" vertex="1">
          <mxGeometry x="276.87" y="2050" width="60" height="30" as="geometry" />
        </mxCell>
        <mxCell id="p7KFQen1C-8qoPf41pVK-20" value="Event 4" style="text;html=1;strokeColor=none;fillColor=none;align=center;verticalAlign=middle;whiteSpace=wrap;rounded=0;" parent="1" vertex="1">
          <mxGeometry x="271.87" y="2120" width="60" height="30" as="geometry" />
        </mxCell>
        <mxCell id="p7KFQen1C-8qoPf41pVK-21" value="" style="rounded=1;arcSize=9;fillColor=#F7F8F9;align=left;spacingLeft=5;strokeColor=#DEE1E6;html=1;strokeWidth=2;fontColor=#596780;fontSize=12;sketch=1;hachureGap=4;pointerEvents=0;fontFamily=Architects Daughter;fontSource=https%3A%2F%2Ffonts.googleapis.com%2Fcss%3Ffamily%3DArchitects%2BDaughter;" parent="1" vertex="1">
          <mxGeometry x="443.12" y="1985.5" width="38.75" height="19" as="geometry" />
        </mxCell>
        <mxCell id="p7KFQen1C-8qoPf41pVK-22" value="" style="shape=mxgraph.gmdl.calendar;fillColor=#5A6881;strokeColor=none;sketch=0;hachureGap=4;pointerEvents=0;fontFamily=Architects Daughter;fontSource=https%3A%2F%2Ffonts.googleapis.com%2Fcss%3Ffamily%3DArchitects%2BDaughter;fontSize=20;" parent="p7KFQen1C-8qoPf41pVK-21" vertex="1">
          <mxGeometry x="1" y="0.5" width="18" height="18" relative="1" as="geometry">
            <mxPoint x="-29" y="-9" as="offset" />
          </mxGeometry>
        </mxCell>
        <mxCell id="p7KFQen1C-8qoPf41pVK-23" value="" style="rounded=1;arcSize=9;fillColor=#F7F8F9;align=left;spacingLeft=5;strokeColor=#DEE1E6;html=1;strokeWidth=2;fontColor=#596780;fontSize=12;sketch=1;hachureGap=4;pointerEvents=0;fontFamily=Architects Daughter;fontSource=https%3A%2F%2Ffonts.googleapis.com%2Fcss%3Ffamily%3DArchitects%2BDaughter;" parent="1" vertex="1">
          <mxGeometry x="441.87" y="2055.5" width="38.75" height="19" as="geometry" />
        </mxCell>
        <mxCell id="p7KFQen1C-8qoPf41pVK-24" value="" style="shape=mxgraph.gmdl.calendar;fillColor=#5A6881;strokeColor=none;sketch=0;hachureGap=4;pointerEvents=0;fontFamily=Architects Daughter;fontSource=https%3A%2F%2Ffonts.googleapis.com%2Fcss%3Ffamily%3DArchitects%2BDaughter;fontSize=20;" parent="p7KFQen1C-8qoPf41pVK-23" vertex="1">
          <mxGeometry x="1" y="0.5" width="18" height="18" relative="1" as="geometry">
            <mxPoint x="-29" y="-9" as="offset" />
          </mxGeometry>
        </mxCell>
        <mxCell id="p7KFQen1C-8qoPf41pVK-25" value="" style="rounded=1;arcSize=9;fillColor=#F7F8F9;align=left;spacingLeft=5;strokeColor=#DEE1E6;html=1;strokeWidth=2;fontColor=#596780;fontSize=12;sketch=1;hachureGap=4;pointerEvents=0;fontFamily=Architects Daughter;fontSource=https%3A%2F%2Ffonts.googleapis.com%2Fcss%3Ffamily%3DArchitects%2BDaughter;" parent="1" vertex="1">
          <mxGeometry x="443.12" y="2125.5" width="38.75" height="19" as="geometry" />
        </mxCell>
        <mxCell id="p7KFQen1C-8qoPf41pVK-26" value="" style="shape=mxgraph.gmdl.calendar;fillColor=#5A6881;strokeColor=none;sketch=0;hachureGap=4;pointerEvents=0;fontFamily=Architects Daughter;fontSource=https%3A%2F%2Ffonts.googleapis.com%2Fcss%3Ffamily%3DArchitects%2BDaughter;fontSize=20;" parent="p7KFQen1C-8qoPf41pVK-25" vertex="1">
          <mxGeometry x="1" y="0.5" width="18" height="18" relative="1" as="geometry">
            <mxPoint x="-29" y="-9" as="offset" />
          </mxGeometry>
        </mxCell>
        <mxCell id="p7KFQen1C-8qoPf41pVK-27" value="" style="html=1;verticalLabelPosition=bottom;align=center;labelBackgroundColor=#ffffff;verticalAlign=top;strokeWidth=2;strokeColor=#0080F0;shadow=0;dashed=0;shape=mxgraph.ios7.icons.bell;" parent="1" vertex="1">
          <mxGeometry x="491.87" y="1985.5" width="20" height="20" as="geometry" />
        </mxCell>
        <mxCell id="p7KFQen1C-8qoPf41pVK-28" value="" style="html=1;verticalLabelPosition=bottom;align=center;labelBackgroundColor=#ffffff;verticalAlign=top;strokeWidth=2;strokeColor=#0080F0;shadow=0;dashed=0;shape=mxgraph.ios7.icons.bell;" parent="1" vertex="1">
          <mxGeometry x="491.87" y="2054.5" width="20" height="20" as="geometry" />
        </mxCell>
        <mxCell id="p7KFQen1C-8qoPf41pVK-29" value="" style="html=1;verticalLabelPosition=bottom;align=center;labelBackgroundColor=#ffffff;verticalAlign=top;strokeWidth=2;strokeColor=#0080F0;shadow=0;dashed=0;shape=mxgraph.ios7.icons.bell;" parent="1" vertex="1">
          <mxGeometry x="491.87" y="2124.5" width="20" height="20" as="geometry" />
        </mxCell>
        <mxCell id="QKx8hrbpY04muQtd3_aD-1" value="" style="html=1;shadow=0;dashed=0;fillColor=#F8F9FA;strokeColor=none;fontSize=16;fontColor=#181819;align=left;spacing=15;" parent="1" vertex="1">
          <mxGeometry x="270" y="1850" width="210" height="30" as="geometry" />
        </mxCell>
        <mxCell id="QKx8hrbpY04muQtd3_aD-2" value="Reminder" style="html=1;shadow=0;dashed=0;shape=mxgraph.bootstrap.rrect;rSize=5;fontSize=14;fontColor=#6C767D;strokeColor=#CED4DA;fillColor=#ffffff;align=left;spacing=10;" parent="QKx8hrbpY04muQtd3_aD-1" vertex="1">
          <mxGeometry width="160" height="30" relative="1" as="geometry">
            <mxPoint as="offset" />
          </mxGeometry>
        </mxCell>
        <mxCell id="QKx8hrbpY04muQtd3_aD-3" value="" style="html=1;verticalLabelPosition=bottom;align=center;labelBackgroundColor=#ffffff;verticalAlign=top;strokeWidth=2;strokeColor=#0080F0;shadow=0;dashed=0;shape=mxgraph.ios7.icons.looking_glass;" parent="QKx8hrbpY04muQtd3_aD-1" vertex="1">
          <mxGeometry x="170" y="5" width="20" height="20" as="geometry" />
        </mxCell>
        <mxCell id="Z2ZkUzCabXC6cQJEbYxD-4" value="Update" style="rounded=1;fillColor=#1ca5b8;align=center;strokeColor=#82b366;html=1;whiteSpace=wrap;fontSize=12;sketch=0;" parent="1" vertex="1">
          <mxGeometry x="276.87" y="2727" width="80" height="33" as="geometry" />
        </mxCell>
        <mxCell id="Z2ZkUzCabXC6cQJEbYxD-7" value="&lt;font color=&quot;#000000&quot;&gt;Delete&lt;/font&gt;" style="rounded=1;fillColor=#1ca5b8;align=center;strokeColor=none;html=1;whiteSpace=wrap;fontColor=#ffffff;fontSize=12;sketch=0;" parent="1" vertex="1">
          <mxGeometry x="425" y="2727" width="80" height="33" as="geometry" />
        </mxCell>
      </root>
    </mxGraphModel>
  </diagram>
  <diagram id="lyK7DmX-aFUJxK_hNT5m" name="Page-4">
    <mxGraphModel dx="1560" dy="-92" grid="1" gridSize="10" guides="1" tooltips="1" connect="1" arrows="1" fold="1" page="1" pageScale="1" pageWidth="850" pageHeight="1100" math="0" shadow="0">
      <root>
        <mxCell id="0" />
        <mxCell id="1" parent="0" />
        <mxCell id="iPRZgMYUr7KRSD-NWEyj-1" value="" style="html=1;verticalLabelPosition=bottom;labelBackgroundColor=#ffffff;verticalAlign=top;shadow=0;dashed=0;strokeWidth=1;shape=mxgraph.ios7.misc.iphone;strokeColor=#c0c0c0;whiteSpace=wrap;" parent="1" vertex="1">
          <mxGeometry x="240" y="1160" width="310" height="550" as="geometry" />
        </mxCell>
        <mxCell id="iPRZgMYUr7KRSD-NWEyj-2" value="" style="html=1;shadow=0;dashed=0;shape=mxgraph.bootstrap.rrect;rSize=5;strokeColor=none;html=1;whiteSpace=wrap;fillColor=#6C767D;fontColor=#ffffff;sketch=0;labelBackgroundColor=#FF99CC;" parent="1" vertex="1">
          <mxGeometry x="260" y="1580" width="270" height="50" as="geometry" />
        </mxCell>
        <mxCell id="iPRZgMYUr7KRSD-NWEyj-3" value="Add Event" style="strokeColor=inherit;fillColor=inherit;gradientColor=inherit;fontColor=inherit;html=1;shadow=0;dashed=0;shape=mxgraph.bootstrap.leftButton;rSize=5;perimeter=none;whiteSpace=wrap;resizeHeight=1;sketch=0;" parent="iPRZgMYUr7KRSD-NWEyj-2" vertex="1">
          <mxGeometry width="70" height="50" relative="1" as="geometry">
            <mxPoint x="10" as="offset" />
          </mxGeometry>
        </mxCell>
        <mxCell id="iPRZgMYUr7KRSD-NWEyj-4" value="View" style="strokeColor=inherit;fillColor=inherit;gradientColor=inherit;fontColor=inherit;html=1;shadow=0;dashed=0;perimeter=none;whiteSpace=wrap;resizeHeight=1;sketch=0;" parent="iPRZgMYUr7KRSD-NWEyj-2" vertex="1">
          <mxGeometry width="60" height="50" relative="1" as="geometry">
            <mxPoint x="95" as="offset" />
          </mxGeometry>
        </mxCell>
        <mxCell id="iPRZgMYUr7KRSD-NWEyj-5" value="Settings" style="strokeColor=inherit;fillColor=inherit;gradientColor=inherit;fontColor=inherit;html=1;shadow=0;dashed=0;shape=mxgraph.bootstrap.rightButton;rSize=5;perimeter=none;whiteSpace=wrap;resizeHeight=1;sketch=0;" parent="iPRZgMYUr7KRSD-NWEyj-2" vertex="1">
          <mxGeometry x="1" width="60" height="50" relative="1" as="geometry">
            <mxPoint x="-80" as="offset" />
          </mxGeometry>
        </mxCell>
        <mxCell id="iPRZgMYUr7KRSD-NWEyj-6" value="TIME" style="html=1;shadow=0;dashed=0;shape=mxgraph.bootstrap.rrect;rSize=5;strokeColor=none;strokeWidth=1;fillColor=#1CA5B8;fontColor=#FFFFFF;whiteSpace=wrap;align=center;verticalAlign=middle;spacingLeft=0;fontStyle=0;fontSize=16;spacing=5;" parent="1" vertex="1">
          <mxGeometry x="325" y="1390" width="120" height="70" as="geometry" />
        </mxCell>
        <mxCell id="iPRZgMYUr7KRSD-NWEyj-7" value="PROGRESS" style="html=1;shadow=0;dashed=0;shape=mxgraph.bootstrap.rrect;rSize=5;strokeColor=none;strokeWidth=1;fillColor=#1CA5B8;fontColor=#FFFFFF;whiteSpace=wrap;align=center;verticalAlign=middle;spacingLeft=0;fontStyle=0;fontSize=16;spacing=5;" parent="1" vertex="1">
          <mxGeometry x="325" y="1480" width="120" height="70" as="geometry" />
        </mxCell>
        <mxCell id="iPRZgMYUr7KRSD-NWEyj-8" value="" style="html=1;shadow=0;dashed=0;fillColor=#F8F9FA;strokeColor=none;fontSize=16;fontColor=#181819;align=left;spacing=15;" parent="1" vertex="1">
          <mxGeometry x="270" y="1250" width="210" height="30" as="geometry" />
        </mxCell>
        <mxCell id="iPRZgMYUr7KRSD-NWEyj-9" value="View" style="html=1;shadow=0;dashed=0;shape=mxgraph.bootstrap.rrect;rSize=5;fontSize=14;fontColor=#6C767D;strokeColor=#CED4DA;fillColor=#ffffff;align=left;spacing=10;" parent="iPRZgMYUr7KRSD-NWEyj-8" vertex="1">
          <mxGeometry width="160" height="30" relative="1" as="geometry">
            <mxPoint as="offset" />
          </mxGeometry>
        </mxCell>
        <mxCell id="iPRZgMYUr7KRSD-NWEyj-10" value="" style="html=1;verticalLabelPosition=bottom;align=center;labelBackgroundColor=#ffffff;verticalAlign=top;strokeWidth=2;strokeColor=#0080F0;shadow=0;dashed=0;shape=mxgraph.ios7.icons.looking_glass;" parent="iPRZgMYUr7KRSD-NWEyj-8" vertex="1">
          <mxGeometry x="170" y="5" width="20" height="20" as="geometry" />
        </mxCell>
        <mxCell id="iPRZgMYUr7KRSD-NWEyj-11" value="EVENT" style="html=1;shadow=0;dashed=0;shape=mxgraph.bootstrap.rrect;rSize=5;strokeColor=none;strokeWidth=1;fillColor=#1CA5B8;fontColor=#FFFFFF;whiteSpace=wrap;align=center;verticalAlign=middle;spacingLeft=0;fontStyle=0;fontSize=16;spacing=5;" parent="1" vertex="1">
          <mxGeometry x="325" y="1300" width="120" height="70" as="geometry" />
        </mxCell>
        <mxCell id="dya-FP4oaonK3wfyfB_W-1" value="" style="html=1;verticalLabelPosition=bottom;labelBackgroundColor=#ffffff;verticalAlign=top;shadow=0;dashed=0;strokeWidth=1;shape=mxgraph.ios7.misc.iphone;strokeColor=#c0c0c0;whiteSpace=wrap;" parent="1" vertex="1">
          <mxGeometry x="240" y="1800" width="310" height="550" as="geometry" />
        </mxCell>
        <mxCell id="dya-FP4oaonK3wfyfB_W-2" value="" style="html=1;shadow=0;dashed=0;shape=mxgraph.bootstrap.rrect;rSize=5;strokeColor=none;html=1;whiteSpace=wrap;fillColor=#6C767D;fontColor=#ffffff;sketch=0;labelBackgroundColor=#FF99CC;" parent="1" vertex="1">
          <mxGeometry x="259.06" y="2218" width="270" height="50" as="geometry" />
        </mxCell>
        <mxCell id="dya-FP4oaonK3wfyfB_W-3" value="Events" style="strokeColor=inherit;fillColor=inherit;gradientColor=inherit;fontColor=inherit;html=1;shadow=0;dashed=0;shape=mxgraph.bootstrap.leftButton;rSize=5;perimeter=none;whiteSpace=wrap;resizeHeight=1;sketch=0;" parent="dya-FP4oaonK3wfyfB_W-2" vertex="1">
          <mxGeometry width="60" height="50" relative="1" as="geometry" />
        </mxCell>
        <mxCell id="dya-FP4oaonK3wfyfB_W-4" value="Reminder" style="strokeColor=inherit;fillColor=inherit;gradientColor=inherit;fontColor=inherit;html=1;shadow=0;dashed=0;perimeter=none;whiteSpace=wrap;resizeHeight=1;sketch=0;" parent="dya-FP4oaonK3wfyfB_W-2" vertex="1">
          <mxGeometry width="60" height="50" relative="1" as="geometry">
            <mxPoint x="95" as="offset" />
          </mxGeometry>
        </mxCell>
        <mxCell id="dya-FP4oaonK3wfyfB_W-5" value="Settings" style="strokeColor=inherit;fillColor=inherit;gradientColor=inherit;fontColor=inherit;html=1;shadow=0;dashed=0;shape=mxgraph.bootstrap.rightButton;rSize=5;perimeter=none;whiteSpace=wrap;resizeHeight=1;sketch=0;" parent="dya-FP4oaonK3wfyfB_W-2" vertex="1">
          <mxGeometry x="1" width="60" height="50" relative="1" as="geometry">
            <mxPoint x="-80" as="offset" />
          </mxGeometry>
        </mxCell>
        <mxCell id="dya-FP4oaonK3wfyfB_W-21" value="" style="html=1;shadow=0;dashed=0;fillColor=#F8F9FA;strokeColor=none;fontSize=16;fontColor=#181819;align=left;spacing=15;" parent="1" vertex="1">
          <mxGeometry x="269.06" y="1888" width="210" height="30" as="geometry" />
        </mxCell>
        <mxCell id="dya-FP4oaonK3wfyfB_W-22" value="Settings" style="html=1;shadow=0;dashed=0;shape=mxgraph.bootstrap.rrect;rSize=5;fontSize=14;fontColor=#6C767D;strokeColor=#CED4DA;fillColor=#ffffff;align=left;spacing=10;" parent="dya-FP4oaonK3wfyfB_W-21" vertex="1">
          <mxGeometry width="160" height="30" relative="1" as="geometry">
            <mxPoint as="offset" />
          </mxGeometry>
        </mxCell>
        <mxCell id="dya-FP4oaonK3wfyfB_W-23" value="" style="html=1;verticalLabelPosition=bottom;align=center;labelBackgroundColor=#ffffff;verticalAlign=top;strokeWidth=2;strokeColor=#0080F0;shadow=0;dashed=0;shape=mxgraph.ios7.icons.looking_glass;" parent="dya-FP4oaonK3wfyfB_W-21" vertex="1">
          <mxGeometry x="170" y="5" width="20" height="20" as="geometry" />
        </mxCell>
        <mxCell id="u3RrCrwQSOw_dkxSe0IT-12" value="" style="rounded=1;whiteSpace=wrap;html=1;" parent="1" vertex="1">
          <mxGeometry x="277.19" y="1925.5" width="233.75" height="25" as="geometry" />
        </mxCell>
        <mxCell id="2dzy6rgz95NkkrF7_0Hb-1" value="Tags" style="text;html=1;strokeColor=none;fillColor=none;align=center;verticalAlign=middle;whiteSpace=wrap;rounded=0;" parent="1" vertex="1">
          <mxGeometry x="277.19" y="1923" width="60" height="30" as="geometry" />
        </mxCell>
        <mxCell id="2dzy6rgz95NkkrF7_0Hb-2" value="" style="image;sketch=0;aspect=fixed;html=1;points=[];align=center;fontSize=12;image=img/lib/mscae/Tag.svg;" parent="1" vertex="1">
          <mxGeometry x="475.31" y="1928" width="20" height="20" as="geometry" />
        </mxCell>
        <mxCell id="2dzy6rgz95NkkrF7_0Hb-4" value="" style="rounded=1;whiteSpace=wrap;html=1;" parent="1" vertex="1">
          <mxGeometry x="277.18" y="1958" width="231.88" height="40" as="geometry" />
        </mxCell>
        <mxCell id="2dzy6rgz95NkkrF7_0Hb-6" value="Date Format" style="text;html=1;strokeColor=none;fillColor=none;align=center;verticalAlign=middle;whiteSpace=wrap;rounded=0;" parent="1" vertex="1">
          <mxGeometry x="277.19" y="1963" width="90" height="30" as="geometry" />
        </mxCell>
        <mxCell id="2dzy6rgz95NkkrF7_0Hb-7" value="" style="sketch=0;outlineConnect=0;fontColor=#232F3E;gradientColor=none;fillColor=#B0084D;strokeColor=none;dashed=0;verticalLabelPosition=bottom;verticalAlign=top;align=center;html=1;fontSize=12;fontStyle=0;aspect=fixed;pointerEvents=1;shape=mxgraph.aws4.systems_manager_change_calendar;" parent="1" vertex="1">
          <mxGeometry x="462.81" y="1963" width="32.5" height="30" as="geometry" />
        </mxCell>
        <mxCell id="2dzy6rgz95NkkrF7_0Hb-8" value="" style="rounded=1;whiteSpace=wrap;html=1;" parent="1" vertex="1">
          <mxGeometry x="277.18" y="2008" width="231.88" height="40" as="geometry" />
        </mxCell>
        <mxCell id="2dzy6rgz95NkkrF7_0Hb-9" value="Dark Mode" style="text;html=1;strokeColor=none;fillColor=none;align=center;verticalAlign=middle;whiteSpace=wrap;rounded=0;" parent="1" vertex="1">
          <mxGeometry x="277.19" y="2013" width="80" height="30" as="geometry" />
        </mxCell>
        <mxCell id="2dzy6rgz95NkkrF7_0Hb-10" value="" style="dashed=0;labelPosition=right;align=left;shape=mxgraph.gmdl.switch;aspect=fixed;switchState=on;strokeColor=none;fillColor=#80CBC4;sketch=0;html=1;" parent="1" vertex="1">
          <mxGeometry x="461.06" y="2018" width="36" height="20" as="geometry" />
        </mxCell>
        <mxCell id="2dzy6rgz95NkkrF7_0Hb-11" value="" style="rounded=1;whiteSpace=wrap;html=1;" parent="1" vertex="1">
          <mxGeometry x="277.18" y="2055" width="231.88" height="40" as="geometry" />
        </mxCell>
        <mxCell id="2dzy6rgz95NkkrF7_0Hb-12" value="language settings" style="text;html=1;strokeColor=none;fillColor=none;align=center;verticalAlign=middle;whiteSpace=wrap;rounded=0;" parent="1" vertex="1">
          <mxGeometry x="277.19" y="2058" width="110" height="30" as="geometry" />
        </mxCell>
        <mxCell id="2dzy6rgz95NkkrF7_0Hb-13" value="" style="editableCssRules=.*;html=1;shape=image;verticalLabelPosition=bottom;labelBackgroundColor=#ffffff;verticalAlign=top;aspect=fixed;imageAspect=0;image=data:image/svg+xml,PHN2ZyB4bWxucz0iaHR0cDovL3d3dy53My5vcmcvMjAwMC9zdmciIHhtbG5zOnY9Imh0dHBzOi8vdmVjdGEuaW8vbmFubyIgd2lkdGg9IjIwIiBoZWlnaHQ9IjE4IiB2aWV3Qm94PSIwIDAgMjAgMTgiPiYjeGE7CTxzdHlsZSB0eXBlPSJ0ZXh0L2NzcyI+JiN4YTsJLnN0MHtmaWxsOiM0Mjg1ZjQ7fSYjeGE7CS5zdDF7ZmlsbDojNjY5ZGY2O2ZpbGwtcnVsZTpldmVub2RkfSYjeGE7CTwvc3R5bGU+JiN4YTsJPHBhdGggY2xhc3M9InN0MCIgZD0iTTE1LjkxIDcuMmgtMS44MkwxMCAxOGgxLjgybDEtMi43aDQuMzJsMSAyLjdIMjB6bS0yLjM5IDYuM0wxNSA5LjZsMS40OCAzLjl6Ii8+JiN4YTsJPHBhdGggY2xhc3M9InN0MSIgZD0iTTEwLjc5IDExLjc3TDguNDggOS41MWgwYTE1LjYyIDE1LjYyIDAgMCAwIDMuNC01LjkxaDIuNjdWMS44SDguMThWMEg2LjM2djEuOEgwdjEuNzloMTAuMTVhMTQuMDYgMTQuMDYgMCAwIDEtMi44OCA0LjgyIDE0LjU1IDE0LjU1IDAgMCAxLTIuMS0zSDMuMzVhMTYgMTYgMCAwIDAgMi43MSA0LjFMMS40NCAxNGwxLjI5IDEuMyA0LjU0LTQuNSAyLjgzIDIuOHoiLz4mI3hhOzwvc3ZnPg==;" parent="1" vertex="1">
          <mxGeometry x="473.09" y="2063" width="22.22" height="20" as="geometry" />
        </mxCell>
        <mxCell id="2dzy6rgz95NkkrF7_0Hb-15" value="" style="rounded=1;whiteSpace=wrap;html=1;" parent="1" vertex="1">
          <mxGeometry x="277.18" y="2103" width="231.88" height="40" as="geometry" />
        </mxCell>
        <mxCell id="2dzy6rgz95NkkrF7_0Hb-16" value="Account Settings" style="text;html=1;strokeColor=none;fillColor=none;align=center;verticalAlign=middle;whiteSpace=wrap;rounded=0;" parent="1" vertex="1">
          <mxGeometry x="282.19" y="2108" width="100" height="30" as="geometry" />
        </mxCell>
        <mxCell id="2dzy6rgz95NkkrF7_0Hb-17" value="" style="sketch=0;pointerEvents=1;shadow=0;dashed=0;html=1;strokeColor=none;labelPosition=center;verticalLabelPosition=bottom;verticalAlign=top;align=center;fillColor=#505050;shape=mxgraph.mscae.intune.account_portal" parent="1" vertex="1">
          <mxGeometry x="474.2" y="2113" width="20" height="20" as="geometry" />
        </mxCell>
        <mxCell id="2dzy6rgz95NkkrF7_0Hb-20" value="" style="rounded=1;whiteSpace=wrap;html=1;" parent="1" vertex="1">
          <mxGeometry x="279.06" y="2155.5" width="231.88" height="40" as="geometry" />
        </mxCell>
        <mxCell id="2dzy6rgz95NkkrF7_0Hb-21" value="Privacy Policy" style="text;html=1;strokeColor=none;fillColor=none;align=center;verticalAlign=middle;whiteSpace=wrap;rounded=0;" parent="1" vertex="1">
          <mxGeometry x="287.76" y="2160.5" width="88.87" height="30" as="geometry" />
        </mxCell>
        <mxCell id="2dzy6rgz95NkkrF7_0Hb-23" value="" style="sketch=0;pointerEvents=1;shadow=0;dashed=0;html=1;strokeColor=none;labelPosition=center;verticalLabelPosition=bottom;verticalAlign=top;align=center;fillColor=#505050;shape=mxgraph.mscae.intune.policy" parent="1" vertex="1">
          <mxGeometry x="470.31" y="2163" width="30" height="25" as="geometry" />
        </mxCell>
        <mxCell id="ltbYSIcNacrai8u5-xZr-1" value="&lt;font style=&quot;font-size: 9px;&quot;&gt;Log out&lt;/font&gt;" style="sketch=0;outlineConnect=0;fontColor=#232F3E;gradientColor=none;strokeColor=#232F3E;fillColor=#ffffff;dashed=0;verticalLabelPosition=bottom;verticalAlign=top;align=center;html=1;fontSize=12;fontStyle=0;aspect=fixed;shape=mxgraph.aws4.resourceIcon;resIcon=mxgraph.aws4.user;" parent="1" vertex="1">
          <mxGeometry x="495.31" y="1888" width="14" height="14" as="geometry" />
        </mxCell>
      </root>
    </mxGraphModel>
  </diagram>
</mxfile>
